<svg width="16" height="19" viewBox="0 0 16 19" fill="none" xmlns="http://www.w3.org/2000/svg">
  <path d="M7.99935 18.167C9.00768 18.167 9.83268 17.342 9.83268 16.3337H6.16602C6.16602 17.342 6.99102 18.167 7.99935 18.167ZM13.4993 12.667V8.08366C13.4993 5.26949 12.0052 2.91366 9.37435 2.29033V1.66699C9.37435 0.906159 8.76018 0.291992 7.99935 0.291992C7.23852 0.291992 6.62435 0.906159 6.62435 1.66699V2.29033C4.00268 2.91366 2.49935 5.26033 2.49935 8.08366V12.667L0.666016 14.5003V15.417H15.3327V14.5003L13.4993 12.667ZM11.666 13.5837H4.33268V8.08366C4.33268 5.81033 5.71685 3.95866 7.99935 3.95866C10.2818 3.95866 11.666 5.81033 11.666 8.08366V13.5837Z" fill="#2D2D2D"/>
</svg>
